<?xml version="1.0" encoding="UTF-8"?>
<svg id="Camada_3" data-name="Camada 3" xmlns="http://www.w3.org/2000/svg" viewBox="0 0 1366 768">
  <defs>
    <style>
      .cls-1 {
        fill: none;
        stroke: #e1e9e5;
        stroke-linecap: round;
        stroke-linejoin: round;
        stroke-width: 9px;
      }
    </style>
  </defs>
  <path class="cls-1" d="M464.58,574.01c57.35-13.69,95.42-35.99,118.14-52.2,8.5-6.07,14.96-11.36,25.92-20.34,26.29-21.55,53.78-47.06,78.48-78.56,12.52-15.97,16.72-23.83,19.23-32.97,3.38-12.31,1.64-19.47,6.24-32.29,4.18-11.67,10.76-20.08,15.74-25.4,1.61-1.72,3.16-3.31,4.78-4.87,6.65-6.4,12.48-10.94,17.2-14.36,22.3-16.2,49.45-32.03,49.45-32.03,23.74-13.84,37.5-20.27,41.21-21.98,9.34-4.31,16.38-7.12,19.23-8.24,8.81-3.46,19.51-7.66,32.97-10.99,9.45-2.34,22.49-4.79,38.46-5.49-4.43-.58-8.69-1.05-12.77-1.42,0,0-6.21-.57-11.64-.85-21.41-1.13-44.27,2.28-44.27,2.28-13.5,2.01-25.18,5.03-30.54,6.42,0,0-.03,0-.03,0,0,0,0,0,0,0h0c-1.4,.48-3.15,1.09-5.15,1.81-.65,.23-3.31,1.2-6.87,2.57-8.38,3.21-9.03,3.77-20.6,8.42-14.04,5.65-10.97,5.25-19.23,8.24,0,0-13.94,5.05-21.98,10.05,0,0,0,0,0,0-.04,.02-.07,.05-.07,.05,0,0,2.84-1.84,2.83-1.86-.02-.02-4.5,2.89-8.93,5.55-3.32,2-7.02,4.05-13.04,7.25-14.4,7.65-23.63,12.54-34.34,15.11-15.88,3.81-21.43-.43-35.72,0-15.58,.46-34.91,11.44-52.2,24.73-19.57,15.04-43.5,34.6-70.06,59.07-34.28,33.38-40.72,41.59-39.84,42.58,1.33,1.51,18.79-14.37,50.83-34.34,27.93-17.41,51.64-28.4,64.56-34.34,18.01-8.28,33.95-14.57,46.71-19.23-6.32,19.58-13.44,35.3-19.23,46.71-12.24,24.08-25.19,42.17-38.46,49.45-13.33,7.31-17.52,3.15-27.47,10.99-14.1,11.11-13.5,25.47-21.98,43.96-9.28,20.24-23.12,31.6-39.84,45.33-31.95,26.24-71.58,40.21-78.3,42.58-2.4,.85-9.81,3.4-9.62,4.12,.28,1.05,16.67-2.44,30.22-5.49Z"/>
  <path class="cls-1" d="M673.6,458.84c9.32-8,18.65-16,27.97-24,11.85,1.79,25.17,4.84,39.32,9.97,15.64,5.67,26.22,11.68,41.99,20.63,15.06,8.55,23.7,13.51,34,22.64,3.8,3.37,3.91,3.82,19.34,20.65,16.94,18.47,23.3,22.21,32,37.3,4.03,6.98,9.11,18.07,11.35,33.98-6.39-8.54-12.18-14.77-16-18.65-12.13-12.31-16.42-13.36-32.67-28.63-22.88-21.5-19.98-21.85-26-24.64-10.18-4.72-13.54-1.73-41.32-6.64-10.78-1.9-16.27-2.87-23.99-5.32-6.89-2.18-16.07-6.75-34.42-15.88-10.03-5-16.61-8.48-24.24-14.74-3.17-2.61-5.65-4.97-7.33-6.66Z"/>
  <circle class="cls-1" cx="695.37" cy="233.33" r="45.33"/>
  <path class="cls-1" d="M623.67,441.6c-2.85-1.5-7.11-3.33-12.55-4.21-4.05-.66-7.58-.6-10.28-.36"/>
</svg>